<svg width="501" height="180" viewBox="0 0 501 180" fill="none" xmlns="http://www.w3.org/2000/svg">
<path d="M38.64 132.84C28.8 132.84 20.72 130.52 14.4 125.88C8.08 121.16 4.68 114.44 4.2 105.72H29.28C29.52 108.68 30.4 110.84 31.92 112.2C33.44 113.56 35.4 114.24 37.8 114.24C39.96 114.24 41.72 113.72 43.08 112.68C44.52 111.56 45.24 110.04 45.24 108.12C45.24 105.64 44.08 103.72 41.76 102.36C39.44 101 35.68 99.48 30.48 97.8C24.96 95.96 20.48 94.2 17.04 92.52C13.68 90.76 10.72 88.24 8.16 84.96C5.68 81.6 4.44 77.24 4.44 71.88C4.44 66.44 5.8 61.8 8.52 57.96C11.24 54.04 15 51.08 19.8 49.08C24.6 47.08 30.04 46.08 36.12 46.08C45.96 46.08 53.8 48.4 59.64 53.04C65.56 57.6 68.72 64.04 69.12 72.36H43.56C43.48 69.8 42.68 67.88 41.16 66.6C39.72 65.32 37.84 64.68 35.52 64.68C33.76 64.68 32.32 65.2 31.2 66.24C30.08 67.28 29.52 68.76 29.52 70.68C29.52 72.28 30.12 73.68 31.32 74.88C32.6 76 34.16 77 36 77.88C37.84 78.68 40.56 79.72 44.16 81C49.52 82.84 53.92 84.68 57.36 86.52C60.88 88.28 63.88 90.8 66.36 94.08C68.92 97.28 70.2 101.36 70.2 106.32C70.2 111.36 68.92 115.88 66.36 119.88C63.88 123.88 60.24 127.04 55.44 129.36C50.72 131.68 45.12 132.84 38.64 132.84ZM93.0141 58.44C88.8541 58.44 85.4941 57.32 82.9341 55.08C80.4541 52.76 79.2141 49.88 79.2141 46.44C79.2141 42.92 80.4541 40 82.9341 37.68C85.4941 35.36 88.8541 34.2 93.0141 34.2C97.0941 34.2 100.374 35.36 102.854 37.68C105.414 40 106.694 42.92 106.694 46.44C106.694 49.88 105.414 52.76 102.854 55.08C100.374 57.32 97.0941 58.44 93.0141 58.44ZM104.654 64.68V132H81.1341V64.68H104.654ZM206.008 64.08C214.488 64.08 221.128 66.64 225.928 71.76C230.808 76.88 233.248 83.88 233.248 92.76V132H209.728V95.88C209.728 92.28 208.728 89.48 206.728 87.48C204.728 85.48 202.008 84.48 198.568 84.48C195.128 84.48 192.408 85.48 190.408 87.48C188.408 89.48 187.408 92.28 187.408 95.88V132H163.888V95.88C163.888 92.28 162.888 89.48 160.888 87.48C158.968 85.48 156.288 84.48 152.848 84.48C149.328 84.48 146.568 85.48 144.568 87.48C142.568 89.48 141.568 92.28 141.568 95.88V132H118.048V64.68H141.568V73.56C143.648 70.68 146.328 68.4 149.608 66.72C152.968 64.96 156.808 64.08 161.128 64.08C166.088 64.08 170.488 65.16 174.328 67.32C178.248 69.48 181.328 72.52 183.568 76.44C185.968 72.76 189.128 69.8 193.048 67.56C196.968 65.24 201.288 64.08 206.008 64.08ZM269.654 74.04C271.494 70.92 274.094 68.44 277.454 66.6C280.814 64.76 284.774 63.84 289.334 63.84C294.694 63.84 299.534 65.24 303.854 68.04C308.254 70.84 311.694 74.84 314.174 80.04C316.734 85.24 318.014 91.32 318.014 98.28C318.014 105.24 316.734 111.36 314.174 116.64C311.694 121.84 308.254 125.84 303.854 128.64C299.534 131.44 294.694 132.84 289.334 132.84C284.774 132.84 280.814 131.92 277.454 130.08C274.174 128.24 271.574 125.76 269.654 122.64V164.16H246.134V64.68H269.654V74.04ZM294.134 98.28C294.134 93.88 292.934 90.48 290.534 88.08C288.214 85.6 285.334 84.36 281.894 84.36C278.454 84.36 275.534 85.6 273.134 88.08C270.814 90.56 269.654 93.96 269.654 98.28C269.654 102.68 270.814 106.12 273.134 108.6C275.534 111.08 278.454 112.32 281.894 112.32C285.334 112.32 288.214 111.08 290.534 108.6C292.934 106.04 294.134 102.6 294.134 98.28ZM359.017 132.84C352.297 132.84 346.257 131.44 340.897 128.64C335.617 125.84 331.457 121.84 328.417 116.64C325.377 111.44 323.857 105.32 323.857 98.28C323.857 91.32 325.377 85.24 328.417 80.04C331.537 74.84 335.737 70.84 341.017 68.04C346.377 65.24 352.417 63.84 359.137 63.84C365.857 63.84 371.857 65.24 377.137 68.04C382.497 70.84 386.697 74.84 389.737 80.04C392.857 85.24 394.417 91.32 394.417 98.28C394.417 105.24 392.857 111.36 389.737 116.64C386.697 121.84 382.497 125.84 377.137 128.64C371.777 131.44 365.737 132.84 359.017 132.84ZM359.017 112.44C362.297 112.44 365.017 111.24 367.177 108.84C369.417 106.36 370.537 102.84 370.537 98.28C370.537 93.72 369.417 90.24 367.177 87.84C365.017 85.44 362.337 84.24 359.137 84.24C355.937 84.24 353.257 85.44 351.097 87.84C348.937 90.24 347.857 93.72 347.857 98.28C347.857 102.92 348.897 106.44 350.977 108.84C353.057 111.24 355.737 112.44 359.017 112.44ZM427.506 43.2V132H403.986V43.2H427.506Z" fill="#205EFF"/>
<path d="M280.72 153C280.72 150.733 281.173 148.76 282.08 147.08C282.987 145.373 284.24 144.053 285.84 143.12C287.467 142.187 289.32 141.72 291.4 141.72C294.093 141.72 296.307 142.373 298.04 143.68C299.8 144.987 300.96 146.8 301.52 149.12H297.6C297.227 147.787 296.493 146.733 295.4 145.96C294.333 145.187 293 144.8 291.4 144.8C289.32 144.8 287.64 145.52 286.36 146.96C285.08 148.373 284.44 150.387 284.44 153C284.44 155.64 285.08 157.68 286.36 159.12C287.64 160.56 289.32 161.28 291.4 161.28C293 161.28 294.333 160.907 295.4 160.16C296.467 159.413 297.2 158.347 297.6 156.96H301.52C300.933 159.2 299.76 161 298 162.36C296.24 163.693 294.04 164.36 291.4 164.36C289.32 164.36 287.467 163.893 285.84 162.96C284.24 162.027 282.987 160.707 282.08 159C281.173 157.293 280.72 155.293 280.72 153ZM315.937 164.36C313.884 164.36 312.017 163.893 310.337 162.96C308.684 162.027 307.377 160.707 306.417 159C305.484 157.267 305.017 155.267 305.017 153C305.017 150.76 305.497 148.787 306.457 147.08C307.444 145.347 308.777 144.027 310.457 143.12C312.137 142.187 314.017 141.72 316.097 141.72C318.177 141.72 320.057 142.187 321.737 143.12C323.417 144.027 324.737 145.333 325.697 147.04C326.684 148.747 327.177 150.733 327.177 153C327.177 155.267 326.67 157.267 325.657 159C324.67 160.707 323.324 162.027 321.617 162.96C319.91 163.893 318.017 164.36 315.937 164.36ZM315.937 161.16C317.244 161.16 318.47 160.853 319.617 160.24C320.764 159.627 321.684 158.707 322.377 157.48C323.097 156.253 323.457 154.76 323.457 153C323.457 151.24 323.11 149.747 322.417 148.52C321.724 147.293 320.817 146.387 319.697 145.8C318.577 145.187 317.364 144.88 316.057 144.88C314.724 144.88 313.497 145.187 312.377 145.8C311.284 146.387 310.404 147.293 309.737 148.52C309.07 149.747 308.737 151.24 308.737 153C308.737 154.787 309.057 156.293 309.697 157.52C310.364 158.747 311.244 159.667 312.337 160.28C313.43 160.867 314.63 161.16 315.937 161.16ZM358.323 141.68C360.029 141.68 361.549 142.04 362.883 142.76C364.216 143.453 365.269 144.507 366.043 145.92C366.816 147.333 367.203 149.053 367.203 151.08V164H363.603V151.6C363.603 149.413 363.056 147.747 361.963 146.6C360.896 145.427 359.443 144.84 357.603 144.84C355.709 144.84 354.203 145.453 353.083 146.68C351.963 147.88 351.403 149.627 351.403 151.92V164H347.803V151.6C347.803 149.413 347.256 147.747 346.163 146.6C345.096 145.427 343.643 144.84 341.803 144.84C339.909 144.84 338.403 145.453 337.283 146.68C336.163 147.88 335.603 149.627 335.603 151.92V164H331.963V142.08H335.603V145.24C336.323 144.093 337.283 143.213 338.483 142.6C339.709 141.987 341.056 141.68 342.523 141.68C344.363 141.68 345.989 142.093 347.403 142.92C348.816 143.747 349.869 144.96 350.563 146.56C351.176 145.013 352.189 143.813 353.603 142.96C355.016 142.107 356.589 141.68 358.323 141.68ZM399.534 141.68C401.24 141.68 402.76 142.04 404.094 142.76C405.427 143.453 406.48 144.507 407.254 145.92C408.027 147.333 408.414 149.053 408.414 151.08V164H404.814V151.6C404.814 149.413 404.267 147.747 403.174 146.6C402.107 145.427 400.654 144.84 398.814 144.84C396.92 144.84 395.414 145.453 394.294 146.68C393.174 147.88 392.614 149.627 392.614 151.92V164H389.014V151.6C389.014 149.413 388.467 147.747 387.374 146.6C386.307 145.427 384.854 144.84 383.014 144.84C381.12 144.84 379.614 145.453 378.494 146.68C377.374 147.88 376.814 149.627 376.814 151.92V164H373.174V142.08H376.814V145.24C377.534 144.093 378.494 143.213 379.694 142.6C380.92 141.987 382.267 141.68 383.734 141.68C385.574 141.68 387.2 142.093 388.614 142.92C390.027 143.747 391.08 144.96 391.774 146.56C392.387 145.013 393.4 143.813 394.814 142.96C396.227 142.107 397.8 141.68 399.534 141.68ZM434.385 152.2C434.385 152.893 434.345 153.627 434.265 154.4H416.745C416.878 156.56 417.611 158.253 418.945 159.48C420.305 160.68 421.945 161.28 423.865 161.28C425.438 161.28 426.745 160.92 427.785 160.2C428.851 159.453 429.598 158.467 430.025 157.24H433.945C433.358 159.347 432.185 161.067 430.425 162.4C428.665 163.707 426.478 164.36 423.865 164.36C421.785 164.36 419.918 163.893 418.265 162.96C416.638 162.027 415.358 160.707 414.425 159C413.491 157.267 413.025 155.267 413.025 153C413.025 150.733 413.478 148.747 414.385 147.04C415.291 145.333 416.558 144.027 418.185 143.12C419.838 142.187 421.731 141.72 423.865 141.72C425.945 141.72 427.785 142.173 429.385 143.08C430.985 143.987 432.211 145.24 433.065 146.84C433.945 148.413 434.385 150.2 434.385 152.2ZM430.625 151.44C430.625 150.053 430.318 148.867 429.705 147.88C429.091 146.867 428.251 146.107 427.185 145.6C426.145 145.067 424.985 144.8 423.705 144.8C421.865 144.8 420.291 145.387 418.985 146.56C417.705 147.733 416.971 149.36 416.785 151.44H430.625ZM442.829 145.64C443.469 144.387 444.376 143.413 445.549 142.72C446.749 142.027 448.203 141.68 449.909 141.68V145.44H448.949C444.869 145.44 442.829 147.653 442.829 152.08V164H439.189V142.08H442.829V145.64ZM452.751 153C452.751 150.733 453.205 148.76 454.111 147.08C455.018 145.373 456.271 144.053 457.871 143.12C459.498 142.187 461.351 141.72 463.431 141.72C466.125 141.72 468.338 142.373 470.071 143.68C471.831 144.987 472.991 146.8 473.551 149.12H469.631C469.258 147.787 468.525 146.733 467.431 145.96C466.365 145.187 465.031 144.8 463.431 144.8C461.351 144.8 459.671 145.52 458.391 146.96C457.111 148.373 456.471 150.387 456.471 153C456.471 155.64 457.111 157.68 458.391 159.12C459.671 160.56 461.351 161.28 463.431 161.28C465.031 161.28 466.365 160.907 467.431 160.16C468.498 159.413 469.231 158.347 469.631 156.96H473.551C472.965 159.2 471.791 161 470.031 162.36C468.271 163.693 466.071 164.36 463.431 164.36C461.351 164.36 459.498 163.893 457.871 162.96C456.271 162.027 455.018 160.707 454.111 159C453.205 157.293 452.751 155.293 452.751 153ZM498.408 152.2C498.408 152.893 498.368 153.627 498.288 154.4H480.768C480.901 156.56 481.635 158.253 482.968 159.48C484.328 160.68 485.968 161.28 487.888 161.28C489.461 161.28 490.768 160.92 491.808 160.2C492.875 159.453 493.621 158.467 494.048 157.24H497.968C497.381 159.347 496.208 161.067 494.448 162.4C492.688 163.707 490.501 164.36 487.888 164.36C485.808 164.36 483.941 163.893 482.288 162.96C480.661 162.027 479.381 160.707 478.448 159C477.515 157.267 477.048 155.267 477.048 153C477.048 150.733 477.501 148.747 478.408 147.04C479.315 145.333 480.581 144.027 482.208 143.12C483.861 142.187 485.755 141.72 487.888 141.72C489.968 141.72 491.808 142.173 493.408 143.08C495.008 143.987 496.235 145.24 497.088 146.84C497.968 148.413 498.408 150.2 498.408 152.2ZM494.648 151.44C494.648 150.053 494.341 148.867 493.728 147.88C493.115 146.867 492.275 146.107 491.208 145.6C490.168 145.067 489.008 144.8 487.728 144.8C485.888 144.8 484.315 145.387 483.008 146.56C481.728 147.733 480.995 149.36 480.808 151.44H494.648Z" fill="#205EFF"/>
</svg>
