<svg width="551" height="189" viewBox="0 0 551 189" fill="none" xmlns="http://www.w3.org/2000/svg">
<path d="M90.64 146.64C80.8 146.64 72.72 144.32 66.4 139.68C60.08 134.96 56.68 128.24 56.2 119.52H81.28C81.52 122.48 82.4 124.64 83.92 126C85.44 127.36 87.4 128.04 89.8 128.04C91.96 128.04 93.72 127.52 95.08 126.48C96.52 125.36 97.24 123.84 97.24 121.92C97.24 119.44 96.08 117.52 93.76 116.16C91.44 114.8 87.68 113.28 82.48 111.6C76.96 109.76 72.48 108 69.04 106.32C65.68 104.56 62.72 102.04 60.16 98.76C57.68 95.4 56.44 91.04 56.44 85.68C56.44 80.24 57.8 75.6 60.52 71.76C63.24 67.84 67 64.88 71.8 62.88C76.6 60.88 82.04 59.88 88.12 59.88C97.96 59.88 105.8 62.2 111.64 66.84C117.56 71.4 120.72 77.84 121.12 86.16H95.56C95.48 83.6 94.68 81.68 93.16 80.4C91.72 79.12 89.84 78.48 87.52 78.48C85.76 78.48 84.32 79 83.2 80.04C82.08 81.08 81.52 82.56 81.52 84.48C81.52 86.08 82.12 87.48 83.32 88.68C84.6 89.8 86.16 90.8 88 91.68C89.84 92.48 92.56 93.52 96.16 94.8C101.52 96.64 105.92 98.48 109.36 100.32C112.88 102.08 115.88 104.6 118.36 107.88C120.92 111.08 122.2 115.16 122.2 120.12C122.2 125.16 120.92 129.68 118.36 133.68C115.88 137.68 112.24 140.84 107.44 143.16C102.72 145.48 97.12 146.64 90.64 146.64Z" fill="#205EFF"/>
<path d="M145.014 72.24C140.854 72.24 137.494 71.12 134.934 68.88C132.454 66.56 131.214 63.68 131.214 60.24C131.214 56.72 132.454 53.8 134.934 51.48C137.494 49.16 140.854 48 145.014 48C149.094 48 152.374 49.16 154.854 51.48C157.414 53.8 158.694 56.72 158.694 60.24C158.694 63.68 157.414 66.56 154.854 68.88C152.374 71.12 149.094 72.24 145.014 72.24ZM156.654 78.48V145.8H133.134V78.48H156.654Z" fill="#205EFF"/>
<path d="M258.008 77.88C266.488 77.88 273.128 80.44 277.928 85.56C282.808 90.68 285.248 97.68 285.248 106.56V145.8H261.728V109.68C261.728 106.08 260.728 103.28 258.728 101.28C256.728 99.28 254.008 98.28 250.568 98.28C247.128 98.28 244.408 99.28 242.408 101.28C240.408 103.28 239.408 106.08 239.408 109.68V145.8H215.888V109.68C215.888 106.08 214.888 103.28 212.888 101.28C210.968 99.28 208.288 98.28 204.848 98.28C201.328 98.28 198.568 99.28 196.568 101.28C194.568 103.28 193.568 106.08 193.568 109.68V145.8H170.048V78.48H193.568V87.36C195.648 84.48 198.328 82.2 201.608 80.52C204.968 78.76 208.808 77.88 213.128 77.88C218.088 77.88 222.488 78.96 226.328 81.12C230.248 83.28 233.328 86.32 235.568 90.24C237.968 86.56 241.128 83.6 245.048 81.36C248.968 79.04 253.288 77.88 258.008 77.88Z" fill="#205EFF"/>
<path d="M321.654 87.84C323.494 84.72 326.094 82.24 329.454 80.4C332.814 78.56 336.774 77.64 341.334 77.64C346.694 77.64 351.534 79.04 355.854 81.84C360.254 84.64 363.694 88.64 366.174 93.84C368.734 99.04 370.014 105.12 370.014 112.08C370.014 119.04 368.734 125.16 366.174 130.44C363.694 135.64 360.254 139.64 355.854 142.44C351.534 145.24 346.694 146.64 341.334 146.64C336.774 146.64 332.814 145.72 329.454 143.88C326.174 142.04 323.574 139.56 321.654 136.44V177.96H298.134V78.48H321.654V87.84ZM346.134 112.08C346.134 107.68 344.934 104.28 342.534 101.88C340.214 99.4 337.334 98.16 333.894 98.16C330.454 98.16 327.534 99.4 325.134 101.88C322.814 104.36 321.654 107.76 321.654 112.08C321.654 116.48 322.814 119.92 325.134 122.4C327.534 124.88 330.454 126.12 333.894 126.12C337.334 126.12 340.214 124.88 342.534 122.4C344.934 119.84 346.134 116.4 346.134 112.08Z" fill="#205EFF"/>
<path d="M411.017 146.64C404.297 146.64 398.257 145.24 392.897 142.44C387.617 139.64 383.457 135.64 380.417 130.44C377.376 125.24 375.857 119.12 375.857 112.08C375.857 105.12 377.376 99.04 380.417 93.84C383.536 88.64 387.737 84.64 393.017 81.84C398.376 79.04 404.417 77.64 411.137 77.64C417.857 77.64 423.857 79.04 429.137 81.84C434.496 84.64 438.697 88.64 441.737 93.84C444.857 99.04 446.417 105.12 446.417 112.08C446.417 119.04 444.857 125.16 441.737 130.44C438.697 135.64 434.496 139.64 429.137 142.44C423.777 145.24 417.737 146.64 411.017 146.64ZM411.017 126.24C414.297 126.24 417.017 125.04 419.177 122.64C421.417 120.16 422.536 116.64 422.536 112.08C422.536 107.52 421.417 104.04 419.177 101.64C417.017 99.24 414.337 98.04 411.137 98.04C407.936 98.04 405.257 99.24 403.096 101.64C400.936 104.04 399.857 107.52 399.857 112.08C399.857 116.72 400.897 120.24 402.977 122.64C405.057 125.04 407.737 126.24 411.017 126.24Z" fill="#205EFF"/>
<path d="M479.506 57V145.8H455.986V57H479.506Z" fill="#205EFF"/>
<path d="M332.72 166.8C332.72 164.533 333.173 162.56 334.08 160.88C334.987 159.173 336.24 157.853 337.84 156.92C339.467 155.987 341.32 155.52 343.4 155.52C346.093 155.52 348.307 156.173 350.04 157.48C351.8 158.787 352.96 160.6 353.52 162.92H349.6C349.227 161.587 348.493 160.533 347.4 159.76C346.333 158.987 345 158.6 343.4 158.6C341.32 158.6 339.64 159.32 338.36 160.76C337.08 162.173 336.44 164.187 336.44 166.8C336.44 169.44 337.08 171.48 338.36 172.92C339.64 174.36 341.32 175.08 343.4 175.08C345 175.08 346.333 174.707 347.4 173.96C348.467 173.213 349.2 172.147 349.6 170.76H353.52C352.933 173 351.76 174.8 350 176.16C348.24 177.493 346.04 178.16 343.4 178.16C341.32 178.16 339.467 177.693 337.84 176.76C336.24 175.827 334.987 174.507 334.08 172.8C333.173 171.093 332.72 169.093 332.72 166.8Z" fill="#205EFF"/>
<path d="M367.937 178.16C365.884 178.16 364.017 177.693 362.337 176.76C360.684 175.827 359.377 174.507 358.417 172.8C357.484 171.067 357.017 169.067 357.017 166.8C357.017 164.56 357.497 162.587 358.457 160.88C359.444 159.147 360.777 157.827 362.457 156.92C364.137 155.987 366.017 155.52 368.097 155.52C370.177 155.52 372.057 155.987 373.737 156.92C375.417 157.827 376.737 159.133 377.697 160.84C378.684 162.547 379.177 164.533 379.177 166.8C379.177 169.067 378.67 171.067 377.657 172.8C376.67 174.507 375.324 175.827 373.617 176.76C371.91 177.693 370.017 178.16 367.937 178.16ZM367.937 174.96C369.244 174.96 370.47 174.653 371.617 174.04C372.764 173.427 373.684 172.507 374.377 171.28C375.097 170.053 375.457 168.56 375.457 166.8C375.457 165.04 375.11 163.547 374.417 162.32C373.724 161.093 372.817 160.187 371.697 159.6C370.577 158.987 369.364 158.68 368.057 158.68C366.724 158.68 365.497 158.987 364.377 159.6C363.284 160.187 362.404 161.093 361.737 162.32C361.07 163.547 360.737 165.04 360.737 166.8C360.737 168.587 361.057 170.093 361.697 171.32C362.364 172.547 363.244 173.467 364.337 174.08C365.43 174.667 366.63 174.96 367.937 174.96Z" fill="#205EFF"/>
<path d="M410.323 155.48C412.029 155.48 413.549 155.84 414.883 156.56C416.216 157.253 417.269 158.307 418.043 159.72C418.816 161.133 419.203 162.853 419.203 164.88V177.8H415.603V165.4C415.603 163.213 415.056 161.547 413.963 160.4C412.896 159.227 411.443 158.64 409.603 158.64C407.709 158.64 406.203 159.253 405.083 160.48C403.963 161.68 403.403 163.427 403.403 165.72V177.8H399.803V165.4C399.803 163.213 399.256 161.547 398.163 160.4C397.096 159.227 395.643 158.64 393.803 158.64C391.909 158.64 390.403 159.253 389.283 160.48C388.163 161.68 387.603 163.427 387.603 165.72V177.8H383.963V155.88H387.603V159.04C388.323 157.893 389.283 157.013 390.483 156.4C391.709 155.787 393.056 155.48 394.523 155.48C396.363 155.48 397.989 155.893 399.403 156.72C400.816 157.547 401.869 158.76 402.563 160.36C403.176 158.813 404.189 157.613 405.603 156.76C407.016 155.907 408.589 155.48 410.323 155.48Z" fill="#205EFF"/>
<path d="M451.534 155.48C453.24 155.48 454.76 155.84 456.094 156.56C457.427 157.253 458.48 158.307 459.254 159.72C460.027 161.133 460.414 162.853 460.414 164.88V177.8H456.814V165.4C456.814 163.213 456.267 161.547 455.174 160.4C454.107 159.227 452.654 158.64 450.814 158.64C448.92 158.64 447.414 159.253 446.294 160.48C445.174 161.68 444.614 163.427 444.614 165.72V177.8H441.014V165.4C441.014 163.213 440.467 161.547 439.374 160.4C438.307 159.227 436.854 158.64 435.014 158.64C433.12 158.64 431.614 159.253 430.494 160.48C429.374 161.68 428.814 163.427 428.814 165.72V177.8H425.174V155.88H428.814V159.04C429.534 157.893 430.494 157.013 431.694 156.4C432.92 155.787 434.267 155.48 435.734 155.48C437.574 155.48 439.2 155.893 440.614 156.72C442.027 157.547 443.08 158.76 443.774 160.36C444.387 158.813 445.4 157.613 446.814 156.76C448.227 155.907 449.8 155.48 451.534 155.48Z" fill="#205EFF"/>
<path d="M486.385 166C486.385 166.693 486.345 167.427 486.265 168.2H468.745C468.878 170.36 469.611 172.053 470.945 173.28C472.305 174.48 473.945 175.08 475.865 175.08C477.438 175.08 478.745 174.72 479.785 174C480.851 173.253 481.598 172.267 482.025 171.04H485.945C485.358 173.147 484.185 174.867 482.425 176.2C480.665 177.507 478.478 178.16 475.865 178.16C473.785 178.16 471.918 177.693 470.265 176.76C468.638 175.827 467.358 174.507 466.425 172.8C465.491 171.067 465.025 169.067 465.025 166.8C465.025 164.533 465.478 162.547 466.385 160.84C467.291 159.133 468.558 157.827 470.185 156.92C471.838 155.987 473.731 155.52 475.865 155.52C477.945 155.52 479.785 155.973 481.385 156.88C482.985 157.787 484.211 159.04 485.065 160.64C485.945 162.213 486.385 164 486.385 166ZM482.625 165.24C482.625 163.853 482.318 162.667 481.705 161.68C481.091 160.667 480.251 159.907 479.185 159.4C478.145 158.867 476.985 158.6 475.705 158.6C473.865 158.6 472.291 159.187 470.985 160.36C469.705 161.533 468.971 163.16 468.785 165.24H482.625Z" fill="#205EFF"/>
<path d="M494.829 159.44C495.469 158.187 496.376 157.213 497.549 156.52C498.749 155.827 500.203 155.48 501.909 155.48V159.24H500.949C496.869 159.24 494.829 161.453 494.829 165.88V177.8H491.189V155.88H494.829V159.44Z" fill="#205EFF"/>
<path d="M504.751 166.8C504.751 164.533 505.205 162.56 506.111 160.88C507.018 159.173 508.271 157.853 509.871 156.92C511.498 155.987 513.351 155.52 515.431 155.52C518.125 155.52 520.338 156.173 522.071 157.48C523.831 158.787 524.991 160.6 525.551 162.92H521.631C521.258 161.587 520.525 160.533 519.431 159.76C518.365 158.987 517.031 158.6 515.431 158.6C513.351 158.6 511.671 159.32 510.391 160.76C509.111 162.173 508.471 164.187 508.471 166.8C508.471 169.44 509.111 171.48 510.391 172.92C511.671 174.36 513.351 175.08 515.431 175.08C517.031 175.08 518.365 174.707 519.431 173.96C520.498 173.213 521.231 172.147 521.631 170.76H525.551C524.965 173 523.791 174.8 522.031 176.16C520.271 177.493 518.071 178.16 515.431 178.16C513.351 178.16 511.498 177.693 509.871 176.76C508.271 175.827 507.018 174.507 506.111 172.8C505.205 171.093 504.751 169.093 504.751 166.8Z" fill="#205EFF"/>
<path d="M550.408 166C550.408 166.693 550.368 167.427 550.288 168.2H532.768C532.901 170.36 533.635 172.053 534.968 173.28C536.328 174.48 537.968 175.08 539.888 175.08C541.461 175.08 542.768 174.72 543.808 174C544.875 173.253 545.621 172.267 546.048 171.04H549.968C549.381 173.147 548.208 174.867 546.448 176.2C544.688 177.507 542.501 178.16 539.888 178.16C537.808 178.16 535.941 177.693 534.288 176.76C532.661 175.827 531.381 174.507 530.448 172.8C529.515 171.067 529.048 169.067 529.048 166.8C529.048 164.533 529.501 162.547 530.408 160.84C531.315 159.133 532.581 157.827 534.208 156.92C535.861 155.987 537.755 155.52 539.888 155.52C541.968 155.52 543.808 155.973 545.408 156.88C547.008 157.787 548.235 159.04 549.088 160.64C549.968 162.213 550.408 164 550.408 166ZM546.648 165.24C546.648 163.853 546.341 162.667 545.728 161.68C545.115 160.667 544.275 159.907 543.208 159.4C542.168 158.867 541.008 158.6 539.728 158.6C537.888 158.6 536.315 159.187 535.008 160.36C533.728 161.533 532.995 163.16 532.808 165.24H546.648Z" fill="#205EFF"/>
<path d="M56 161.8C56 157.934 59.134 154.8 63 154.8H278C281.866 154.8 285 157.934 285 161.8V181.8C285 185.666 281.866 188.8 278 188.8H63C59.134 188.8 56 185.666 56 181.8V161.8Z" fill="#1E1E1E"/>
<path d="M100.675 163.175V167.075H95.975V180.8H91.075V167.075H86.425V163.175H100.675Z" fill="white"/>
<path d="M104.963 165.475C104.096 165.475 103.396 165.242 102.863 164.775C102.346 164.292 102.088 163.692 102.088 162.975C102.088 162.242 102.346 161.633 102.863 161.15C103.396 160.667 104.096 160.425 104.963 160.425C105.813 160.425 106.496 160.667 107.013 161.15C107.546 161.633 107.813 162.242 107.813 162.975C107.813 163.692 107.546 164.292 107.013 164.775C106.496 165.242 105.813 165.475 104.963 165.475ZM107.388 166.775V180.8H102.488V166.775H107.388Z" fill="white"/>
<path d="M123.578 173.625C123.578 174.008 123.553 174.392 123.503 174.775H114.228C114.278 175.542 114.487 176.117 114.853 176.5C115.237 176.867 115.72 177.05 116.303 177.05C117.12 177.05 117.703 176.683 118.053 175.95H123.278C123.062 176.917 122.637 177.783 122.003 178.55C121.387 179.3 120.603 179.892 119.653 180.325C118.703 180.758 117.653 180.975 116.503 180.975C115.12 180.975 113.887 180.683 112.803 180.1C111.737 179.517 110.895 178.683 110.278 177.6C109.678 176.517 109.378 175.242 109.378 173.775C109.378 172.308 109.678 171.042 110.278 169.975C110.878 168.892 111.712 168.058 112.778 167.475C113.862 166.892 115.103 166.6 116.503 166.6C117.887 166.6 119.112 166.883 120.178 167.45C121.245 168.017 122.078 168.833 122.678 169.9C123.278 170.95 123.578 172.192 123.578 173.625ZM118.578 172.4C118.578 171.8 118.378 171.333 117.978 171C117.578 170.65 117.078 170.475 116.478 170.475C115.878 170.475 115.387 170.642 115.003 170.975C114.62 171.292 114.37 171.767 114.253 172.4H118.578Z" fill="white"/>
<path d="M134.759 166.65C136.375 166.65 137.659 167.192 138.609 168.275C139.559 169.342 140.034 170.792 140.034 172.625V180.8H135.134V173.275C135.134 172.475 134.925 171.85 134.509 171.4C134.092 170.933 133.534 170.7 132.834 170.7C132.1 170.7 131.525 170.933 131.109 171.4C130.692 171.85 130.484 172.475 130.484 173.275V180.8H125.584V166.775H130.484V168.775C130.917 168.142 131.5 167.633 132.234 167.25C132.967 166.85 133.809 166.65 134.759 166.65Z" fill="white"/>
<path d="M141.922 173.775C141.922 172.325 142.181 171.058 142.697 169.975C143.231 168.892 143.956 168.058 144.872 167.475C145.789 166.892 146.806 166.6 147.922 166.6C148.822 166.6 149.622 166.792 150.322 167.175C151.039 167.542 151.597 168.05 151.997 168.7V162.3H156.922V180.8H151.997V178.85C151.614 179.5 151.072 180.017 150.372 180.4C149.672 180.783 148.847 180.975 147.897 180.975C146.781 180.975 145.764 180.683 144.847 180.1C143.947 179.517 143.231 178.683 142.697 177.6C142.181 176.5 141.922 175.225 141.922 173.775ZM152.022 173.775C152.022 172.875 151.772 172.167 151.272 171.65C150.789 171.133 150.189 170.875 149.472 170.875C148.739 170.875 148.131 171.133 147.647 171.65C147.164 172.15 146.922 172.858 146.922 173.775C146.922 174.675 147.164 175.392 147.647 175.925C148.131 176.442 148.739 176.7 149.472 176.7C150.189 176.7 150.789 176.442 151.272 175.925C151.772 175.408 152.022 174.692 152.022 173.775Z" fill="white"/>
<path d="M158.914 173.775C158.914 172.325 159.173 171.058 159.689 169.975C160.223 168.892 160.939 168.058 161.84 167.475C162.756 166.892 163.773 166.6 164.889 166.6C165.856 166.6 166.689 166.792 167.389 167.175C168.089 167.558 168.631 168.075 169.015 168.725V166.775H173.914V180.8H169.015V178.85C168.631 179.5 168.081 180.017 167.365 180.4C166.665 180.783 165.839 180.975 164.889 180.975C163.773 180.975 162.756 180.683 161.84 180.1C160.939 179.517 160.223 178.683 159.689 177.6C159.173 176.5 158.914 175.225 158.914 173.775ZM169.015 173.775C169.015 172.875 168.765 172.167 168.265 171.65C167.781 171.133 167.181 170.875 166.465 170.875C165.731 170.875 165.123 171.133 164.639 171.65C164.156 172.15 163.914 172.858 163.914 173.775C163.914 174.675 164.156 175.392 164.639 175.925C165.123 176.442 165.731 176.7 166.465 176.7C167.181 176.7 167.781 176.442 168.265 175.925C168.765 175.408 169.015 174.692 169.015 173.775Z" fill="white"/>
<path d="M188.467 163.175C190.317 163.175 191.934 163.55 193.317 164.3C194.717 165.033 195.792 166.067 196.542 167.4C197.292 168.733 197.667 170.258 197.667 171.975C197.667 173.675 197.284 175.192 196.517 176.525C195.767 177.858 194.692 178.908 193.292 179.675C191.909 180.425 190.3 180.8 188.467 180.8H181.492V163.175H188.467ZM188.092 176.475C189.525 176.475 190.65 176.083 191.467 175.3C192.284 174.517 192.692 173.408 192.692 171.975C192.692 170.525 192.284 169.408 191.467 168.625C190.65 167.825 189.525 167.425 188.092 167.425H186.392V176.475H188.092Z" fill="white"/>
<path d="M213.276 173.625C213.276 174.008 213.251 174.392 213.201 174.775H203.926C203.976 175.542 204.184 176.117 204.551 176.5C204.934 176.867 205.417 177.05 206.001 177.05C206.817 177.05 207.401 176.683 207.751 175.95H212.976C212.759 176.917 212.334 177.783 211.701 178.55C211.084 179.3 210.301 179.892 209.351 180.325C208.401 180.758 207.351 180.975 206.201 180.975C204.817 180.975 203.584 180.683 202.501 180.1C201.434 179.517 200.592 178.683 199.976 177.6C199.376 176.517 199.076 175.242 199.076 173.775C199.076 172.308 199.376 171.042 199.976 169.975C200.576 168.892 201.409 168.058 202.476 167.475C203.559 166.892 204.801 166.6 206.201 166.6C207.584 166.6 208.809 166.883 209.876 167.45C210.942 168.017 211.776 168.833 212.376 169.9C212.976 170.95 213.276 172.192 213.276 173.625ZM208.276 172.4C208.276 171.8 208.076 171.333 207.676 171C207.276 170.65 206.776 170.475 206.176 170.475C205.576 170.475 205.084 170.642 204.701 170.975C204.317 171.292 204.067 171.767 203.951 172.4H208.276Z" fill="white"/>
<path d="M233.606 166.65C235.373 166.65 236.756 167.183 237.756 168.25C238.773 169.317 239.281 170.775 239.281 172.625V180.8H234.381V173.275C234.381 172.525 234.173 171.942 233.756 171.525C233.339 171.108 232.773 170.9 232.056 170.9C231.339 170.9 230.773 171.108 230.356 171.525C229.939 171.942 229.731 172.525 229.731 173.275V180.8H224.831V173.275C224.831 172.525 224.623 171.942 224.206 171.525C223.806 171.108 223.248 170.9 222.531 170.9C221.798 170.9 221.223 171.108 220.806 171.525C220.389 171.942 220.181 172.525 220.181 173.275V180.8H215.281V166.775H220.181V168.625C220.614 168.025 221.173 167.55 221.856 167.2C222.556 166.833 223.356 166.65 224.256 166.65C225.289 166.65 226.206 166.875 227.006 167.325C227.823 167.775 228.464 168.408 228.931 169.225C229.431 168.458 230.089 167.842 230.906 167.375C231.723 166.892 232.623 166.65 233.606 166.65Z" fill="white"/>
<path d="M248.49 180.975C247.09 180.975 245.832 180.683 244.715 180.1C243.615 179.517 242.749 178.683 242.115 177.6C241.482 176.517 241.165 175.242 241.165 173.775C241.165 172.325 241.482 171.058 242.115 169.975C242.765 168.892 243.64 168.058 244.74 167.475C245.857 166.892 247.115 166.6 248.515 166.6C249.915 166.6 251.165 166.892 252.265 167.475C253.382 168.058 254.257 168.892 254.89 169.975C255.54 171.058 255.865 172.325 255.865 173.775C255.865 175.225 255.54 176.5 254.89 177.6C254.257 178.683 253.382 179.517 252.265 180.1C251.149 180.683 249.89 180.975 248.49 180.975ZM248.49 176.725C249.174 176.725 249.74 176.475 250.19 175.975C250.657 175.458 250.89 174.725 250.89 173.775C250.89 172.825 250.657 172.1 250.19 171.6C249.74 171.1 249.182 170.85 248.515 170.85C247.849 170.85 247.29 171.1 246.84 171.6C246.39 172.1 246.165 172.825 246.165 173.775C246.165 174.742 246.382 175.475 246.815 175.975C247.249 176.475 247.807 176.725 248.49 176.725Z" fill="white"/>
<path d="M103.02 41.3396C109.067 43.9553 108.535 50.8922 106.647 56.0827C106.443 56.6365 107.344 56.9886 107.586 56.5003C107.734 56.1529 107.883 55.8055 108.059 55.3549C109.967 56.6958 113.98 59.2643 115.126 62.0049C115.126 62.0049 115.126 62.0049 115.164 62.0704C116.586 69.9731 100.843 72.1704 95.5276 73.8434C90.0161 75.6296 84.7514 78.1458 80.27 81.8672C75.2374 85.9941 71.4763 91.5678 66.406 95.6293C63.6607 97.8249 60.4925 99.7414 57.047 100.422C55.3432 100.795 53.2542 100.954 51.5928 100.343C47.8572 99.0105 47.5995 95.8442 47.4726 92.6024C51.0138 92.3899 54.5949 90.5841 57.5567 88.6124C57.6875 88.5368 57.5742 88.3405 57.4434 88.4161C52.8735 91.229 47.1859 93.4658 42.1208 90.2835C35.7869 86.2635 39.4089 78.938 44.6533 76.0846C48.9817 73.7601 54.1236 73.1468 58.7091 71.7208C62.8641 70.4559 66.8303 68.864 70.5496 66.5422C74.1104 64.3991 77.2658 61.7049 80.0259 58.6284C83.2339 55.1187 85.3896 50.9953 88.3156 47.2994C91.6517 43.1051 97.3211 38.8723 103.02 41.3396Z" fill="white"/>
<path d="M20.4453 52.2871C26.8602 57.6562 21.0163 66.8751 13.2281 64.567C9.02443 63.33 7.44257 59.5325 8.75511 55.4597C10.216 51.0394 13.9988 50.3385 18.0938 50.3296C17.938 51.1175 17.7168 51.9431 17.6642 52.7586C17.5914 53.2369 18.1 53.8156 18.5856 53.448C19.2022 53.0048 19.791 52.6648 20.4453 52.2871Z" fill="white"/>
<path d="M42.4332 76.3194C41.2242 65.7637 32.8757 42.8421 19.0177 51.6281C20.5831 43.3091 25.7633 36.5671 32.2151 31.2719C39.1525 25.6091 47.3108 20.5499 56.2631 19.1325C73.0251 16.434 89.0508 25.1526 96.6517 40.131C96.5863 40.1688 96.5863 40.1688 96.5209 40.2066C90.9715 41.9274 87.6031 47.2745 84.559 51.8236C79.9879 58.5629 74.5405 64.2379 67.1822 67.9628C60.385 71.4509 52.9652 71.8963 45.9488 74.5514C44.7886 74.9595 43.5731 75.574 42.4332 76.3194Z" fill="#E93842"/>
<path d="M44.5224 76.1601C39.3434 78.9757 35.6559 86.339 41.9898 90.359C46.9895 93.5791 52.7425 91.3045 57.3124 88.4916C57.4433 88.416 57.5566 88.6123 57.4257 88.6879C54.4639 90.6596 50.9207 92.5308 47.3416 92.6779C47.4685 95.9197 47.7262 99.086 51.4618 100.419C53.1232 101.03 55.1744 100.805 56.9161 100.498C60.427 99.7791 63.5298 97.9004 66.275 95.7048C71.3076 91.5779 75.1064 86.0696 80.139 81.9427C84.6859 78.1835 89.8473 75.6397 95.3967 73.9189C100.712 72.2459 116.455 70.0486 115.033 62.1458C115.033 62.1458 115.033 62.1458 114.995 62.0804C113.849 59.3398 109.836 56.7713 107.928 55.4304C107.779 55.7778 107.669 56.1906 107.455 56.5758C107.251 57.1296 106.312 56.712 106.516 56.1583C108.404 50.9677 108.936 44.0308 102.889 41.4151C97.1901 38.9478 91.5208 43.1807 88.157 47.4782C85.231 51.174 83.0099 55.3352 79.8673 58.8071C77.1072 61.8836 73.8486 64.5501 70.391 66.7208C66.6717 69.0427 62.7055 70.6346 58.5505 71.8995C54.0203 73.1191 48.813 73.7702 44.5224 76.1601ZM32.3184 31.2995C25.8667 36.5947 20.5833 43.3091 19.1211 51.6557C32.9136 42.9075 41.3276 65.7913 42.5366 76.347C43.6765 75.6016 44.892 74.9871 46.1176 74.5412C53.134 71.8861 60.5538 71.4408 67.351 67.9526C74.6715 64.1623 80.1567 58.5528 84.7278 51.8134C87.8373 47.2266 91.1403 41.9173 96.6896 40.1964C96.7551 40.1586 96.755 40.1586 96.8205 40.1209C89.2195 25.1424 73.1939 16.4239 56.4319 19.1224C47.4141 20.5775 39.1526 25.609 32.3184 31.2995ZM12.1157 65.2092C7.85402 63.5695 6.52374 59.4522 7.92936 55.2384C9.52855 50.3022 13.6283 49.2438 18.2974 49.7759C20.306 42.0734 25.5065 35.6686 31.6688 30.6277C38.8956 24.7105 47.3811 19.4625 56.7361 17.9871C73.6667 15.2785 90.4903 24.3215 97.7844 39.8261C101.295 39.1076 105.076 40.0654 107.32 43.0447C109.893 46.4443 109.706 50.6527 108.411 54.4537C108.411 54.4537 108.411 54.4537 108.476 54.4159C111.069 55.885 117.038 60.0284 115.939 63.7161C115.523 69.1906 106.742 71.207 102.456 72.5474C97.5713 74.0591 92.5353 75.3091 87.9729 77.6815C83.2796 80.1295 79.2837 83.4834 75.6555 87.3229C70.3114 93.0255 64.7662 99.891 56.6294 101.361C50.0001 102.571 46.5357 98.9882 46.6293 92.653C45.3079 92.6308 43.9386 92.3745 42.5491 91.7809C39.2438 90.2869 36.9902 87.139 37.5452 83.4162C37.9445 80.4813 39.771 78.2054 42.0786 76.6114C40.5 67.2288 33.622 46.2497 21.3335 51.8614C24.3069 54.5939 25.1792 58.9756 22.8144 62.4346C20.3463 65.866 15.9269 66.6729 12.1157 65.2092ZM8.79276 55.5251C7.4148 59.6357 8.95888 63.3678 13.2658 64.6325C21.0539 66.9405 26.8601 57.6562 20.4829 52.3525C19.8941 52.6925 19.2398 53.0702 18.6233 53.5134C18.1376 53.881 17.629 53.3023 17.7019 52.8241C17.8199 51.9708 17.9757 51.1829 18.1315 50.3951C13.9987 50.3385 10.2537 51.1049 8.79276 55.5251Z" fill="#1D1D1B"/>
<path d="M41.2582 46.0283C33.8396 42.5472 23.4121 43.0715 18.2899 50.2163C17.7591 50.9589 18.8039 52.0132 19.5513 51.4945C20.3917 50.8348 21.2423 50.3437 22.1583 49.8148C23.8824 49.7791 25.5411 49.781 27.2375 49.8484C27.9599 50.042 28.6547 50.3388 29.2841 50.6734C29.3596 50.8042 29.5006 50.8973 29.6416 50.9904C30.0645 51.2696 30.5529 51.5111 31.0136 51.8558C32.8564 53.2345 34.4956 55.1669 35.873 57.2505C37.326 59.465 38.638 61.5863 39.7915 63.8865C39.1446 63.8237 38.4074 64.5111 38.8883 65.1931C40.9079 68.3889 43.1542 71.9774 42.3752 75.9166C42.2471 76.6013 43.1759 76.8502 43.4072 76.1932C43.5003 76.0522 43.4902 75.8835 43.5179 75.7803C43.7722 76.0697 44.1573 76.2835 44.6531 76.0845C46.7947 75.1098 49.1151 74.2936 51.4557 73.8146C53.2627 73.4692 55.0246 73.4988 56.2549 72.0034C56.3203 71.9656 56.348 71.8624 56.4134 71.8246C57.4832 72.1666 58.895 71.4387 58.5044 70.0067C55.9491 60.1411 50.6302 50.4752 41.2582 46.0283Z" fill="#ED6068"/>
<path d="M104.795 42.1469C101.092 39.6613 97.5154 40.4176 94.395 42.568C94.2541 42.475 94.0854 42.4851 93.8891 42.5984C91.496 43.8929 89.1432 45.8619 87.9736 48.3691C87.8806 48.5101 87.9561 48.641 88.0317 48.7718C86.5774 50.4838 85.3572 52.1479 84.22 53.5024C79.1679 59.5598 73.7381 64.9629 67.2607 68.7026C67.1096 68.4409 66.8276 68.2547 66.5383 68.509C61.1205 72.4221 54.2187 71.3471 48.5062 74.2963C48.3753 74.3718 48.3477 74.475 48.3201 74.5782C45.5869 75.2838 43.0149 76.4198 41.1884 78.6957C39.0724 81.2259 37.946 85.0168 39.3188 88.1499C41.0517 92.2092 44.1101 92.9734 47.3593 92.406C47.2284 92.4816 47.1731 92.688 47.2486 92.8188C47.3343 93.1183 47.4578 93.4833 47.6089 93.745C47.5543 96.2191 48.7455 98.5847 51.0464 99.6989C51.1874 99.792 51.3182 99.7165 51.4491 99.6409C53.4504 100.841 55.9449 101.233 58.1897 100.286C58.7509 100.049 58.504 99.319 57.9327 99.3872C57.5954 99.4074 57.2581 99.4277 56.9209 99.4479C56.9107 99.2793 56.732 99.1208 56.5256 99.0655C52.2417 98.7472 49.9225 95.637 50.485 91.4738C54.0964 90.1739 57.695 88.0962 60.277 87.1289C60.5765 87.0432 60.6116 86.4996 60.1711 86.4921C55.8521 86.7175 39.1847 93.8106 42.2292 83.0673C44.7659 74.013 57.6758 75.3706 64.6719 72.3782C71.8644 69.2725 77.8278 63.7358 82.9277 57.9125C88.0277 52.0892 94.94 38.6767 104.433 42.8794C104.856 43.1587 105.321 42.4538 104.795 42.1469Z" fill="#BBE1E4"/>
<path d="M17.2479 49.7711C16.3494 50.0282 15.3579 50.4261 14.3765 50.9928C14.2152 50.5624 13.83 50.3486 13.3343 50.5476C9.92928 51.9028 7.51929 55.7369 8.2101 59.351C8.853 62.7311 11.9748 65.1161 15.4027 64.7073C15.6368 64.6594 15.7299 64.5184 15.7197 64.3498C16.8172 64.5885 17.9046 64.6587 19.0094 64.4569C19.4121 64.3989 19.6434 63.7419 19.1274 63.6037C16.4543 63.0533 13.3683 62.3923 12.1844 59.5863C10.4616 55.6957 14.6186 52.7722 17.7619 51.5681C18.8945 51.2632 18.5113 49.3907 17.2479 49.7711Z" fill="#BBE1E4"/>
<path d="M108.371 56.0469C107.779 55.7778 107.08 56.5306 107.616 57.0061C110.098 58.888 115.473 62.1533 113.999 65.7958C113.878 66.04 114.198 66.2915 114.46 66.1404C119.075 62.9525 110.85 57.3197 108.371 56.0469Z" fill="#BBE1E4"/>
</svg>
