<svg width="263" height="263" viewBox="0 0 263 263" fill="none" xmlns="http://www.w3.org/2000/svg">
<rect width="263" height="263" rx="25" fill="white"/>
<path d="M85.104 59.84C87.696 55.328 91.536 51.584 96.624 48.608C101.808 45.536 107.808 44 114.624 44C121.632 44 127.968 45.68 133.632 49.04C139.392 52.4 143.904 57.152 147.168 63.296C150.432 69.344 152.064 76.4 152.064 84.464C152.064 92.432 150.432 99.536 147.168 105.776C143.904 112.016 139.392 116.864 133.632 120.32C127.968 123.776 121.632 125.504 114.624 125.504C107.904 125.504 101.952 124.016 96.768 121.04C91.68 117.968 87.792 114.176 85.104 109.664V161.648H72V45.296H85.104V59.84ZM138.672 84.464C138.672 78.512 137.472 73.328 135.072 68.912C132.672 64.496 129.408 61.136 125.28 58.832C121.248 56.528 116.784 55.376 111.888 55.376C107.088 55.376 102.624 56.576 98.496 58.976C94.464 61.28 91.2 64.688 88.704 69.2C86.304 73.616 85.104 78.752 85.104 84.608C85.104 90.56 86.304 95.792 88.704 100.304C91.2 104.72 94.464 108.128 98.496 110.528C102.624 112.832 107.088 113.984 111.888 113.984C116.784 113.984 121.248 112.832 125.28 110.528C129.408 108.128 132.672 104.72 135.072 100.304C137.472 95.792 138.672 90.512 138.672 84.464Z" fill="#205EFF"/>
<path d="M166.896 131.856C173.04 131.856 178.512 133.152 183.312 135.744C188.112 138.24 191.904 142.032 194.688 147.12C197.472 152.208 198.864 158.4 198.864 165.696V212.208H185.904V167.568C185.904 159.696 183.936 153.696 180 149.568C176.16 145.344 170.928 143.232 164.304 143.232C157.488 143.232 152.064 145.44 148.032 149.856C144 154.176 141.984 160.464 141.984 168.72V212.208H129.024V167.568C129.024 159.696 127.056 153.696 123.12 149.568C119.28 145.344 114.048 143.232 107.424 143.232C100.608 143.232 95.184 145.44 91.152 149.856C87.12 154.176 85.104 160.464 85.104 168.72V212.208H72V133.296H85.104V144.672C87.696 140.544 91.152 137.376 95.472 135.168C99.888 132.96 104.736 131.856 110.016 131.856C116.64 131.856 122.496 133.344 127.584 136.32C132.672 139.296 136.464 143.664 138.96 149.424C141.168 143.856 144.816 139.536 149.904 136.464C154.992 133.392 160.656 131.856 166.896 131.856Z" fill="#205EFF"/>
<circle cx="185" cy="66" r="22" fill="#FF5662"/>
<path d="M176.071 74.5136C176.881 73.8777 177.25 73.5833 177.179 73.6304C179.512 71.7228 181.345 70.1567 182.679 68.9321C184.036 67.7074 185.179 66.4239 186.107 65.0815C187.036 63.7391 187.5 62.4321 187.5 61.1603C187.5 60.1947 187.274 59.4411 186.821 58.8995C186.369 58.3578 185.69 58.087 184.786 58.087C183.881 58.087 183.167 58.4284 182.643 59.1114C182.143 59.7708 181.893 60.7129 181.893 61.9375H176C176.048 59.9357 176.476 58.2636 177.286 56.9212C178.119 55.5788 179.202 54.5897 180.536 53.9538C181.893 53.3179 183.393 53 185.036 53C187.869 53 190 53.7183 191.429 55.1549C192.881 56.5915 193.607 58.4638 193.607 60.7717C193.607 63.2917 192.738 65.635 191 67.8016C189.262 69.9447 187.048 72.0408 184.357 74.0897H194V79H176.071V74.5136Z" fill="white"/>
</svg>
