<svg width="871" height="201" viewBox="0 0 871 201" fill="none" xmlns="http://www.w3.org/2000/svg">
<path d="M34.704 110.592C28.08 110.592 22.128 109.44 16.848 107.136C11.664 104.736 7.584 101.472 4.608 97.344C1.632 93.12 0.0959998 88.272 0 82.8H13.968C14.448 87.504 16.368 91.488 19.728 94.752C23.184 97.92 28.176 99.504 34.704 99.504C40.944 99.504 45.84 97.968 49.392 94.896C53.04 91.728 54.864 87.696 54.864 82.8C54.864 78.96 53.808 75.84 51.696 73.44C49.584 71.04 46.944 69.216 43.776 67.968C40.608 66.72 36.336 65.376 30.96 63.936C24.336 62.208 19.008 60.48 14.976 58.752C11.04 57.024 7.632 54.336 4.752 50.688C1.968 46.944 0.576 41.952 0.576 35.712C0.576 30.24 1.968 25.392 4.752 21.168C7.536 16.944 11.424 13.68 16.416 11.376C21.504 9.072 27.312 7.92 33.84 7.92C43.248 7.92 50.928 10.272 56.88 14.976C62.928 19.68 66.336 25.92 67.104 33.696H52.704C52.224 29.856 50.208 26.496 46.656 23.616C43.104 20.64 38.4 19.152 32.544 19.152C27.072 19.152 22.608 20.592 19.152 23.472C15.696 26.256 13.968 30.192 13.968 35.28C13.968 38.928 14.976 41.904 16.992 44.208C19.104 46.512 21.648 48.288 24.624 49.536C27.696 50.688 31.968 52.032 37.44 53.568C44.064 55.392 49.392 57.216 53.424 59.04C57.456 60.768 60.912 63.504 63.792 67.248C66.672 70.896 68.112 75.888 68.112 82.224C68.112 87.12 66.816 91.728 64.224 96.048C61.632 100.368 57.792 103.872 52.704 106.56C47.616 109.248 41.616 110.592 34.704 110.592Z" fill="white"/>
<path d="M94.1636 17.856C91.6676 17.856 89.5556 16.992 87.8276 15.264C86.0996 13.536 85.2356 11.424 85.2356 8.928C85.2356 6.432 86.0996 4.32 87.8276 2.592C89.5556 0.864002 91.6676 0 94.1636 0C96.5636 0 98.5796 0.864002 100.212 2.592C101.94 4.32 102.804 6.432 102.804 8.928C102.804 11.424 101.94 13.536 100.212 15.264C98.5796 16.992 96.5636 17.856 94.1636 17.856ZM100.5 30.672V109.584H87.3956V30.672H100.5Z" fill="white"/>
<path d="M217.729 29.232C223.873 29.232 229.345 30.528 234.145 33.12C238.945 35.616 242.737 39.408 245.521 44.496C248.305 49.584 249.697 55.776 249.697 63.072V109.584H236.737V64.944C236.737 57.072 234.769 51.072 230.833 46.944C226.993 42.72 221.761 40.608 215.137 40.608C208.321 40.608 202.897 42.816 198.865 47.232C194.833 51.552 192.817 57.84 192.817 66.096V109.584H179.857V64.944C179.857 57.072 177.889 51.072 173.953 46.944C170.113 42.72 164.881 40.608 158.257 40.608C151.441 40.608 146.017 42.816 141.985 47.232C137.953 51.552 135.937 57.84 135.937 66.096V109.584H122.833V30.672H135.937V42.048C138.529 37.92 141.985 34.752 146.305 32.544C150.721 30.336 155.569 29.232 160.849 29.232C167.473 29.232 173.329 30.72 178.417 33.696C183.505 36.672 187.297 41.04 189.793 46.8C192.001 41.232 195.649 36.912 200.737 33.84C205.825 30.768 211.489 29.232 217.729 29.232Z" fill="white"/>
<path d="M284.297 45.216C286.889 40.704 290.728 36.96 295.816 33.984C301 30.912 307 29.376 313.816 29.376C320.824 29.376 327.16 31.056 332.824 34.416C338.584 37.776 343.097 42.528 346.361 48.672C349.625 54.72 351.257 61.776 351.257 69.84C351.257 77.808 349.625 84.912 346.361 91.152C343.097 97.392 338.584 102.24 332.824 105.696C327.16 109.152 320.824 110.88 313.816 110.88C307.096 110.88 301.144 109.392 295.96 106.416C290.872 103.344 286.985 99.552 284.297 95.04V147.024H271.193V30.672H284.297V45.216ZM337.865 69.84C337.865 63.888 336.664 58.704 334.264 54.288C331.864 49.872 328.601 46.512 324.473 44.208C320.441 41.904 315.977 40.752 311.081 40.752C306.281 40.752 301.817 41.952 297.689 44.352C293.657 46.656 290.392 50.064 287.896 54.576C285.496 58.992 284.297 64.128 284.297 69.984C284.297 75.936 285.496 81.168 287.896 85.68C290.392 90.096 293.657 93.504 297.689 95.904C301.817 98.208 306.281 99.36 311.081 99.36C315.977 99.36 320.441 98.208 324.473 95.904C328.601 93.504 331.864 90.096 334.264 85.68C336.664 81.168 337.865 75.888 337.865 69.84Z" fill="white"/>
<path d="M402.921 110.88C395.529 110.88 388.809 109.2 382.761 105.84C376.809 102.48 372.105 97.728 368.649 91.584C365.289 85.344 363.609 78.144 363.609 69.984C363.609 61.92 365.337 54.816 368.793 48.672C372.345 42.432 377.145 37.68 383.193 34.416C389.241 31.056 396.009 29.376 403.497 29.376C410.985 29.376 417.753 31.056 423.801 34.416C429.849 37.68 434.601 42.384 438.057 48.528C441.609 54.672 443.385 61.824 443.385 69.984C443.385 78.144 441.561 85.344 437.913 91.584C434.361 97.728 429.513 102.48 423.369 105.84C417.225 109.2 410.409 110.88 402.921 110.88ZM402.921 99.36C407.625 99.36 412.041 98.256 416.169 96.048C420.297 93.84 423.609 90.528 426.105 86.112C428.697 81.696 429.993 76.32 429.993 69.984C429.993 63.648 428.745 58.272 426.249 53.856C423.753 49.44 420.489 46.176 416.457 44.064C412.425 41.856 408.057 40.752 403.353 40.752C398.553 40.752 394.137 41.856 390.105 44.064C386.169 46.176 383.001 49.44 380.601 53.856C378.201 58.272 377.001 63.648 377.001 69.984C377.001 76.416 378.153 81.84 380.457 86.256C382.857 90.672 386.025 93.984 389.961 96.192C393.897 98.304 398.217 99.36 402.921 99.36Z" fill="white"/>
<path d="M473.718 3.02401V109.584H460.614V3.02401H473.718Z" fill="white"/>
<path d="M62.984 149.328C62.984 139.536 65.192 130.752 69.608 122.976C74.024 115.104 80.024 108.96 87.608 104.544C95.288 100.128 103.784 97.92 113.096 97.92C124.04 97.92 133.592 100.56 141.752 105.84C149.912 111.12 155.864 118.608 159.608 128.304H143.912C141.128 122.256 137.096 117.6 131.816 114.336C126.632 111.072 120.392 109.44 113.096 109.44C106.088 109.44 99.8 111.072 94.232 114.336C88.664 117.6 84.296 122.256 81.128 128.304C77.96 134.256 76.376 141.264 76.376 149.328C76.376 157.296 77.96 164.304 81.128 170.352C84.296 176.304 88.664 180.912 94.232 184.176C99.8 187.44 106.088 189.072 113.096 189.072C120.392 189.072 126.632 187.488 131.816 184.32C137.096 181.056 141.128 176.4 143.912 170.352H159.608C155.864 179.952 149.912 187.392 141.752 192.672C133.592 197.856 124.04 200.448 113.096 200.448C103.784 200.448 95.288 198.288 87.608 193.968C80.024 189.552 74.024 183.456 69.608 175.68C65.192 167.904 62.984 159.12 62.984 149.328Z" fill="white"/>
<path d="M213.53 200.88C206.138 200.88 199.418 199.2 193.37 195.84C187.418 192.48 182.714 187.728 179.258 181.584C175.898 175.344 174.218 168.144 174.218 159.984C174.218 151.92 175.946 144.816 179.402 138.672C182.954 132.432 187.754 127.68 193.802 124.416C199.85 121.056 206.618 119.376 214.106 119.376C221.594 119.376 228.362 121.056 234.41 124.416C240.458 127.68 245.21 132.384 248.666 138.528C252.218 144.672 253.994 151.824 253.994 159.984C253.994 168.144 252.17 175.344 248.522 181.584C244.97 187.728 240.122 192.48 233.978 195.84C227.834 199.2 221.018 200.88 213.53 200.88ZM213.53 189.36C218.234 189.36 222.65 188.256 226.778 186.048C230.906 183.84 234.218 180.528 236.714 176.112C239.306 171.696 240.602 166.32 240.602 159.984C240.602 153.648 239.354 148.272 236.858 143.856C234.362 139.44 231.098 136.176 227.066 134.064C223.034 131.856 218.666 130.752 213.962 130.752C209.162 130.752 204.746 131.856 200.714 134.064C196.778 136.176 193.61 139.44 191.21 143.856C188.81 148.272 187.61 153.648 187.61 159.984C187.61 166.416 188.762 171.84 191.066 176.256C193.466 180.672 196.634 183.984 200.57 186.192C204.506 188.304 208.826 189.36 213.53 189.36Z" fill="white"/>
<path d="M366.12 119.232C372.264 119.232 377.736 120.528 382.536 123.12C387.336 125.616 391.128 129.408 393.912 134.496C396.696 139.584 398.088 145.776 398.088 153.072V199.584H385.128V154.944C385.128 147.072 383.16 141.072 379.224 136.944C375.384 132.72 370.152 130.608 363.528 130.608C356.712 130.608 351.288 132.816 347.256 137.232C343.224 141.552 341.208 147.84 341.208 156.096V199.584H328.248V154.944C328.248 147.072 326.28 141.072 322.344 136.944C318.504 132.72 313.272 130.608 306.648 130.608C299.832 130.608 294.408 132.816 290.376 137.232C286.344 141.552 284.328 147.84 284.328 156.096V199.584H271.224V120.672H284.328V132.048C286.92 127.92 290.376 124.752 294.696 122.544C299.112 120.336 303.96 119.232 309.24 119.232C315.864 119.232 321.72 120.72 326.808 123.696C331.896 126.672 335.688 131.04 338.184 136.8C340.392 131.232 344.04 126.912 349.128 123.84C354.216 120.768 359.88 119.232 366.12 119.232Z" fill="white"/>
<path d="M514.479 119.232C520.623 119.232 526.095 120.528 530.895 123.12C535.695 125.616 539.487 129.408 542.271 134.496C545.055 139.584 546.447 145.776 546.447 153.072V199.584H533.487V154.944C533.487 147.072 531.519 141.072 527.583 136.944C523.743 132.72 518.511 130.608 511.887 130.608C505.071 130.608 499.647 132.816 495.615 137.232C491.583 141.552 489.567 147.84 489.567 156.096V199.584H476.607V154.944C476.607 147.072 474.639 141.072 470.703 136.944C466.863 132.72 461.631 130.608 455.007 130.608C448.191 130.608 442.767 132.816 438.735 137.232C434.703 141.552 432.687 147.84 432.687 156.096V199.584H419.583V120.672H432.687V132.048C435.279 127.92 438.735 124.752 443.055 122.544C447.471 120.336 452.319 119.232 457.599 119.232C464.223 119.232 470.079 120.72 475.167 123.696C480.255 126.672 484.047 131.04 486.543 136.8C488.751 131.232 492.399 126.912 497.487 123.84C502.575 120.768 508.239 119.232 514.479 119.232Z" fill="white"/>
<path d="M639.943 157.104C639.943 159.6 639.799 162.24 639.51 165.024H576.438C576.918 172.8 579.559 178.896 584.359 183.312C589.255 187.632 595.158 189.792 602.07 189.792C607.734 189.792 612.438 188.496 616.182 185.904C620.022 183.216 622.711 179.664 624.247 175.248H638.359C636.247 182.832 632.023 189.024 625.687 193.824C619.351 198.528 611.478 200.88 602.07 200.88C594.582 200.88 587.863 199.2 581.911 195.84C576.055 192.48 571.447 187.728 568.087 181.584C564.727 175.344 563.047 168.144 563.047 159.984C563.047 151.824 564.679 144.672 567.943 138.528C571.207 132.384 575.766 127.68 581.622 124.416C587.574 121.056 594.39 119.376 602.07 119.376C609.558 119.376 616.183 121.008 621.943 124.272C627.703 127.536 632.118 132.048 635.19 137.808C638.358 143.472 639.943 149.904 639.943 157.104ZM626.406 154.368C626.406 149.376 625.302 145.104 623.094 141.552C620.886 137.904 617.863 135.168 614.023 133.344C610.279 131.424 606.103 130.464 601.495 130.464C594.871 130.464 589.207 132.576 584.503 136.8C579.895 141.024 577.255 146.88 576.583 154.368H626.406Z" fill="white"/>
<path d="M670.343 133.488C672.647 128.976 675.911 125.472 680.135 122.976C684.455 120.48 689.687 119.232 695.831 119.232V132.768H692.375C677.687 132.768 670.343 140.736 670.343 156.672V199.584H657.239V120.672H670.343V133.488Z" fill="white"/>
<path d="M706.062 159.984C706.062 151.824 707.694 144.72 710.958 138.672C714.222 132.528 718.734 127.776 724.494 124.416C730.35 121.056 737.022 119.376 744.51 119.376C754.206 119.376 762.174 121.728 768.414 126.432C774.75 131.136 778.926 137.664 780.942 146.016H766.83C765.486 141.216 762.846 137.424 758.91 134.64C755.07 131.856 750.27 130.464 744.51 130.464C737.022 130.464 730.974 133.056 726.366 138.24C721.758 143.328 719.454 150.576 719.454 159.984C719.454 169.488 721.758 176.832 726.366 182.016C730.974 187.2 737.022 189.792 744.51 189.792C750.27 189.792 755.07 188.448 758.91 185.76C762.75 183.072 765.39 179.232 766.83 174.24H780.942C778.83 182.304 774.606 188.784 768.27 193.68C761.934 198.48 754.014 200.88 744.51 200.88C737.022 200.88 730.35 199.2 724.494 195.84C718.734 192.48 714.222 187.728 710.958 181.584C707.694 175.44 706.062 168.24 706.062 159.984Z" fill="white"/>
<path d="M870.427 157.104C870.427 159.6 870.283 162.24 869.995 165.024H806.923C807.403 172.8 810.043 178.896 814.843 183.312C819.739 187.632 825.643 189.792 832.555 189.792C838.219 189.792 842.923 188.496 846.667 185.904C850.507 183.216 853.195 179.664 854.731 175.248H868.843C866.731 182.832 862.507 189.024 856.171 193.824C849.835 198.528 841.963 200.88 832.555 200.88C825.067 200.88 818.347 199.2 812.395 195.84C806.539 192.48 801.931 187.728 798.571 181.584C795.211 175.344 793.531 168.144 793.531 159.984C793.531 151.824 795.163 144.672 798.427 138.528C801.691 132.384 806.251 127.68 812.107 124.416C818.059 121.056 824.875 119.376 832.555 119.376C840.043 119.376 846.667 121.008 852.427 124.272C858.187 127.536 862.603 132.048 865.675 137.808C868.843 143.472 870.427 149.904 870.427 157.104ZM856.891 154.368C856.891 149.376 855.787 145.104 853.579 141.552C851.371 137.904 848.347 135.168 844.507 133.344C840.763 131.424 836.587 130.464 831.979 130.464C825.355 130.464 819.691 132.576 814.987 136.8C810.379 141.024 807.739 146.88 807.067 154.368H856.891Z" fill="white"/>
</svg>
