<svg width="871" height="202" viewBox="0 0 871 202" fill="none" xmlns="http://www.w3.org/2000/svg">
<path d="M34.912 111.008C28.288 111.008 22.336 109.856 17.056 107.552C11.872 105.152 7.79201 101.888 4.81601 97.76C1.84001 93.536 0.304008 88.688 0.208008 83.216H14.176C14.656 87.92 16.576 91.904 19.936 95.168C23.392 98.336 28.384 99.92 34.912 99.92C41.152 99.92 46.048 98.384 49.6 95.312C53.248 92.144 55.072 88.112 55.072 83.216C55.072 79.376 54.016 76.256 51.904 73.856C49.792 71.456 47.152 69.632 43.984 68.384C40.816 67.136 36.544 65.792 31.168 64.352C24.544 62.624 19.216 60.896 15.184 59.168C11.248 57.44 7.84001 54.752 4.96001 51.104C2.17601 47.36 0.784008 42.368 0.784008 36.128C0.784008 30.656 2.17601 25.808 4.96001 21.584C7.74401 17.36 11.632 14.096 16.624 11.792C21.712 9.48802 27.52 8.33602 34.048 8.33602C43.456 8.33602 51.136 10.688 57.088 15.392C63.136 20.096 66.544 26.336 67.312 34.112H52.912C52.432 30.272 50.416 26.912 46.864 24.032C43.312 21.056 38.608 19.568 32.752 19.568C27.28 19.568 22.816 21.008 19.36 23.888C15.904 26.672 14.176 30.608 14.176 35.696C14.176 39.344 15.184 42.32 17.2 44.624C19.312 46.928 21.856 48.704 24.832 49.952C27.904 51.104 32.176 52.448 37.648 53.984C44.272 55.808 49.6 57.632 53.632 59.456C57.664 61.184 61.12 63.92 64 67.664C66.88 71.312 68.32 76.304 68.32 82.64C68.32 87.536 67.024 92.144 64.432 96.464C61.84 100.784 58 104.288 52.912 106.976C47.824 109.664 41.824 111.008 34.912 111.008Z" fill="#205EFF"/>
<path d="M94.3716 18.272C91.8756 18.272 89.7636 17.408 88.0356 15.68C86.3076 13.952 85.4436 11.84 85.4436 9.34401C85.4436 6.84802 86.3076 4.73602 88.0356 3.00802C89.7636 1.28002 91.8756 0.416016 94.3716 0.416016C96.7716 0.416016 98.7876 1.28002 100.42 3.00802C102.148 4.73602 103.012 6.84802 103.012 9.34401C103.012 11.84 102.148 13.952 100.42 15.68C98.7876 17.408 96.7716 18.272 94.3716 18.272ZM100.708 31.088V110H87.6036V31.088H100.708Z" fill="#205EFF"/>
<path d="M217.937 29.648C224.081 29.648 229.553 30.944 234.353 33.536C239.153 36.032 242.945 39.824 245.729 44.912C248.513 50 249.905 56.192 249.905 63.488V110H236.945V65.36C236.945 57.488 234.977 51.488 231.041 47.36C227.201 43.136 221.969 41.024 215.345 41.024C208.529 41.024 203.105 43.232 199.073 47.648C195.041 51.968 193.025 58.256 193.025 66.512V110H180.065V65.36C180.065 57.488 178.097 51.488 174.161 47.36C170.321 43.136 165.089 41.024 158.465 41.024C151.649 41.024 146.225 43.232 142.193 47.648C138.161 51.968 136.145 58.256 136.145 66.512V110H123.041V31.088H136.145V42.464C138.737 38.336 142.193 35.168 146.513 32.96C150.929 30.752 155.777 29.648 161.057 29.648C167.681 29.648 173.537 31.136 178.625 34.112C183.713 37.088 187.505 41.456 190.001 47.216C192.209 41.648 195.857 37.328 200.945 34.256C206.033 31.184 211.697 29.648 217.937 29.648Z" fill="#205EFF"/>
<path d="M284.505 45.632C287.097 41.12 290.937 37.376 296.025 34.4C301.209 31.328 307.209 29.792 314.025 29.792C321.033 29.792 327.369 31.472 333.033 34.832C338.793 38.192 343.305 42.944 346.569 49.088C349.833 55.136 351.465 62.192 351.465 70.256C351.465 78.224 349.833 85.328 346.569 91.568C343.305 97.808 338.793 102.656 333.033 106.112C327.369 109.568 321.033 111.296 314.025 111.296C307.305 111.296 301.352 109.808 296.168 106.832C291.08 103.76 287.193 99.968 284.505 95.456V147.44H271.401V31.088H284.505V45.632ZM338.073 70.256C338.073 64.304 336.873 59.12 334.473 54.704C332.073 50.288 328.809 46.928 324.681 44.624C320.649 42.32 316.185 41.168 311.289 41.168C306.489 41.168 302.025 42.368 297.897 44.768C293.865 47.072 290.6 50.48 288.104 54.992C285.704 59.408 284.505 64.544 284.505 70.4C284.505 76.352 285.704 81.584 288.104 86.096C290.6 90.512 293.865 93.92 297.897 96.32C302.025 98.624 306.489 99.776 311.289 99.776C316.185 99.776 320.649 98.624 324.681 96.32C328.809 93.92 332.073 90.512 334.473 86.096C336.873 81.584 338.073 76.304 338.073 70.256Z" fill="#205EFF"/>
<path d="M403.129 111.296C395.737 111.296 389.017 109.616 382.969 106.256C377.017 102.896 372.313 98.144 368.857 92C365.497 85.76 363.817 78.56 363.817 70.4C363.817 62.336 365.545 55.232 369.001 49.088C372.553 42.848 377.353 38.096 383.401 34.832C389.449 31.472 396.217 29.792 403.705 29.792C411.193 29.792 417.961 31.472 424.009 34.832C430.057 38.096 434.809 42.8 438.265 48.944C441.817 55.088 443.593 62.24 443.593 70.4C443.593 78.56 441.769 85.76 438.121 92C434.569 98.144 429.721 102.896 423.577 106.256C417.433 109.616 410.617 111.296 403.129 111.296ZM403.129 99.776C407.833 99.776 412.249 98.672 416.377 96.464C420.505 94.256 423.817 90.944 426.313 86.528C428.905 82.112 430.201 76.736 430.201 70.4C430.201 64.064 428.953 58.688 426.457 54.272C423.961 49.856 420.697 46.592 416.665 44.48C412.633 42.272 408.265 41.168 403.561 41.168C398.761 41.168 394.345 42.272 390.313 44.48C386.377 46.592 383.209 49.856 380.809 54.272C378.409 58.688 377.209 64.064 377.209 70.4C377.209 76.832 378.361 82.256 380.665 86.672C383.065 91.088 386.233 94.4 390.169 96.608C394.105 98.72 398.425 99.776 403.129 99.776Z" fill="#205EFF"/>
<path d="M473.926 3.44002V110H460.822V3.44002H473.926Z" fill="#205EFF"/>
<path d="M63.192 149.744C63.192 139.952 65.4 131.168 69.816 123.392C74.232 115.52 80.232 109.376 87.816 104.96C95.496 100.544 103.992 98.336 113.304 98.336C124.248 98.336 133.8 100.976 141.96 106.256C150.12 111.536 156.072 119.024 159.816 128.72H144.12C141.336 122.672 137.304 118.016 132.024 114.752C126.84 111.488 120.6 109.856 113.304 109.856C106.296 109.856 100.008 111.488 94.44 114.752C88.872 118.016 84.504 122.672 81.336 128.72C78.168 134.672 76.584 141.68 76.584 149.744C76.584 157.712 78.168 164.72 81.336 170.768C84.504 176.72 88.872 181.328 94.44 184.592C100.008 187.856 106.296 189.488 113.304 189.488C120.6 189.488 126.84 187.904 132.024 184.736C137.304 181.472 141.336 176.816 144.12 170.768H159.816C156.072 180.368 150.12 187.808 141.96 193.088C133.8 198.272 124.248 200.864 113.304 200.864C103.992 200.864 95.496 198.704 87.816 194.384C80.232 189.968 74.232 183.872 69.816 176.096C65.4 168.32 63.192 159.536 63.192 149.744Z" fill="#205EFF"/>
<path d="M213.738 201.296C206.346 201.296 199.626 199.616 193.578 196.256C187.626 192.896 182.922 188.144 179.466 182C176.106 175.76 174.426 168.56 174.426 160.4C174.426 152.336 176.154 145.232 179.61 139.088C183.162 132.848 187.962 128.096 194.01 124.832C200.058 121.472 206.826 119.792 214.314 119.792C221.802 119.792 228.57 121.472 234.618 124.832C240.666 128.096 245.418 132.8 248.874 138.944C252.426 145.088 254.202 152.24 254.202 160.4C254.202 168.56 252.378 175.76 248.73 182C245.178 188.144 240.33 192.896 234.186 196.256C228.042 199.616 221.226 201.296 213.738 201.296ZM213.738 189.776C218.442 189.776 222.858 188.672 226.986 186.464C231.114 184.256 234.426 180.944 236.922 176.528C239.514 172.112 240.81 166.736 240.81 160.4C240.81 154.064 239.562 148.688 237.066 144.272C234.57 139.856 231.306 136.592 227.274 134.48C223.242 132.272 218.874 131.168 214.17 131.168C209.37 131.168 204.954 132.272 200.922 134.48C196.986 136.592 193.818 139.856 191.418 144.272C189.018 148.688 187.818 154.064 187.818 160.4C187.818 166.832 188.97 172.256 191.274 176.672C193.674 181.088 196.842 184.4 200.778 186.608C204.714 188.72 209.034 189.776 213.738 189.776Z" fill="#205EFF"/>
<path d="M366.328 119.648C372.472 119.648 377.944 120.944 382.744 123.536C387.544 126.032 391.336 129.824 394.12 134.912C396.904 140 398.296 146.192 398.296 153.488V200H385.336V155.36C385.336 147.488 383.368 141.488 379.432 137.36C375.592 133.136 370.36 131.024 363.736 131.024C356.92 131.024 351.496 133.232 347.464 137.648C343.432 141.968 341.416 148.256 341.416 156.512V200H328.456V155.36C328.456 147.488 326.488 141.488 322.552 137.36C318.712 133.136 313.48 131.024 306.856 131.024C300.04 131.024 294.616 133.232 290.584 137.648C286.552 141.968 284.536 148.256 284.536 156.512V200H271.432V121.088H284.536V132.464C287.128 128.336 290.584 125.168 294.904 122.96C299.32 120.752 304.168 119.648 309.448 119.648C316.072 119.648 321.928 121.136 327.016 124.112C332.104 127.088 335.896 131.456 338.392 137.216C340.6 131.648 344.248 127.328 349.336 124.256C354.424 121.184 360.088 119.648 366.328 119.648Z" fill="#205EFF"/>
<path d="M514.687 119.648C520.831 119.648 526.303 120.944 531.103 123.536C535.903 126.032 539.695 129.824 542.479 134.912C545.263 140 546.655 146.192 546.655 153.488V200H533.695V155.36C533.695 147.488 531.727 141.488 527.791 137.36C523.951 133.136 518.719 131.024 512.095 131.024C505.279 131.024 499.855 133.232 495.823 137.648C491.791 141.968 489.775 148.256 489.775 156.512V200H476.815V155.36C476.815 147.488 474.847 141.488 470.911 137.36C467.071 133.136 461.839 131.024 455.215 131.024C448.399 131.024 442.975 133.232 438.943 137.648C434.911 141.968 432.895 148.256 432.895 156.512V200H419.791V121.088H432.895V132.464C435.487 128.336 438.943 125.168 443.263 122.96C447.679 120.752 452.527 119.648 457.807 119.648C464.431 119.648 470.287 121.136 475.375 124.112C480.463 127.088 484.255 131.456 486.751 137.216C488.959 131.648 492.607 127.328 497.695 124.256C502.783 121.184 508.447 119.648 514.687 119.648Z" fill="#205EFF"/>
<path d="M640.151 157.52C640.151 160.016 640.007 162.656 639.719 165.44H576.646C577.126 173.216 579.767 179.312 584.567 183.728C589.463 188.048 595.367 190.208 602.279 190.208C607.943 190.208 612.647 188.912 616.391 186.32C620.231 183.632 622.919 180.08 624.455 175.664H638.567C636.455 183.248 632.231 189.44 625.895 194.24C619.559 198.944 611.687 201.296 602.279 201.296C594.791 201.296 588.071 199.616 582.119 196.256C576.263 192.896 571.655 188.144 568.295 182C564.935 175.76 563.255 168.56 563.255 160.4C563.255 152.24 564.887 145.088 568.151 138.944C571.415 132.8 575.975 128.096 581.831 124.832C587.783 121.472 594.599 119.792 602.279 119.792C609.767 119.792 616.391 121.424 622.151 124.688C627.911 127.952 632.326 132.464 635.398 138.224C638.566 143.888 640.151 150.32 640.151 157.52ZM626.615 154.784C626.615 149.792 625.51 145.52 623.302 141.968C621.094 138.32 618.071 135.584 614.231 133.76C610.487 131.84 606.311 130.88 601.703 130.88C595.079 130.88 589.415 132.992 584.711 137.216C580.103 141.44 577.463 147.296 576.791 154.784H626.615Z" fill="#205EFF"/>
<path d="M670.551 133.904C672.855 129.392 676.119 125.888 680.343 123.392C684.663 120.896 689.895 119.648 696.039 119.648V133.184H692.583C677.895 133.184 670.551 141.152 670.551 157.088V200H657.447V121.088H670.551V133.904Z" fill="#205EFF"/>
<path d="M706.27 160.4C706.27 152.24 707.902 145.136 711.166 139.088C714.43 132.944 718.942 128.192 724.702 124.832C730.558 121.472 737.23 119.792 744.718 119.792C754.414 119.792 762.382 122.144 768.622 126.848C774.958 131.552 779.134 138.08 781.15 146.432H767.038C765.694 141.632 763.054 137.84 759.118 135.056C755.278 132.272 750.478 130.88 744.718 130.88C737.23 130.88 731.182 133.472 726.574 138.656C721.966 143.744 719.662 150.992 719.662 160.4C719.662 169.904 721.966 177.248 726.574 182.432C731.182 187.616 737.23 190.208 744.718 190.208C750.478 190.208 755.278 188.864 759.118 186.176C762.958 183.488 765.598 179.648 767.038 174.656H781.15C779.038 182.72 774.814 189.2 768.478 194.096C762.142 198.896 754.222 201.296 744.718 201.296C737.23 201.296 730.558 199.616 724.702 196.256C718.942 192.896 714.43 188.144 711.166 182C707.902 175.856 706.27 168.656 706.27 160.4Z" fill="#205EFF"/>
<path d="M870.635 157.52C870.635 160.016 870.491 162.656 870.203 165.44H807.131C807.611 173.216 810.251 179.312 815.051 183.728C819.947 188.048 825.851 190.208 832.763 190.208C838.427 190.208 843.131 188.912 846.875 186.32C850.715 183.632 853.403 180.08 854.939 175.664H869.051C866.939 183.248 862.715 189.44 856.379 194.24C850.043 198.944 842.171 201.296 832.763 201.296C825.275 201.296 818.555 199.616 812.603 196.256C806.747 192.896 802.139 188.144 798.779 182C795.419 175.76 793.739 168.56 793.739 160.4C793.739 152.24 795.371 145.088 798.635 138.944C801.899 132.8 806.459 128.096 812.315 124.832C818.267 121.472 825.083 119.792 832.763 119.792C840.251 119.792 846.875 121.424 852.635 124.688C858.395 127.952 862.811 132.464 865.883 138.224C869.051 143.888 870.635 150.32 870.635 157.52ZM857.099 154.784C857.099 149.792 855.995 145.52 853.787 141.968C851.579 138.32 848.555 135.584 844.715 133.76C840.971 131.84 836.795 130.88 832.187 130.88C825.563 130.88 819.899 132.992 815.195 137.216C810.587 141.44 807.947 147.296 807.275 154.784H857.099Z" fill="#205EFF"/>
</svg>
