<svg width="144" height="87" viewBox="0 0 144 87" fill="none" xmlns="http://www.w3.org/2000/svg">
<path d="M34.64 86.84C24.8 86.84 16.72 84.52 10.4 79.88C4.07995 75.16 0.679951 68.44 0.199951 59.72H25.28C25.52 62.68 26.4 64.84 27.92 66.2C29.44 67.56 31.4 68.24 33.8 68.24C35.96 68.24 37.72 67.72 39.08 66.68C40.52 65.56 41.24 64.04 41.24 62.12C41.24 59.64 40.08 57.72 37.76 56.36C35.44 55 31.68 53.48 26.48 51.8C20.96 49.96 16.48 48.2 13.04 46.52C9.67995 44.76 6.71995 42.24 4.15995 38.96C1.67995 35.6 0.439951 31.24 0.439951 25.88C0.439951 20.44 1.79995 15.8 4.51995 11.96C7.23995 8.03996 11 5.07996 15.8 3.07995C20.6 1.07995 26.04 0.0799561 32.12 0.0799561C41.96 0.0799561 49.8 2.39995 55.6399 7.03995C61.56 11.6 64.72 18.04 65.12 26.36H39.56C39.48 23.8 38.68 21.88 37.16 20.6C35.72 19.32 33.84 18.68 31.52 18.68C29.76 18.68 28.32 19.2 27.2 20.24C26.08 21.28 25.52 22.76 25.52 24.68C25.52 26.28 26.12 27.68 27.32 28.88C28.6 30 30.16 31 32 31.88C33.84 32.68 36.56 33.72 40.16 35C45.52 36.84 49.92 38.68 53.36 40.52C56.88 42.28 59.8799 44.8 62.36 48.08C64.92 51.28 66.2 55.36 66.2 60.32C66.2 65.36 64.92 69.88 62.36 73.88C59.8799 77.88 56.24 81.04 51.44 83.36C46.72 85.68 41.12 86.84 34.64 86.84Z" fill="white"/>
<path d="M60.84 43.5199C60.84 35.1999 62.56 27.7999 66 21.3199C69.52 14.7599 74.48 9.67993 80.88 6.07994C87.28 2.39994 94.64 0.559937 102.96 0.559937C113.52 0.559937 122.4 3.39993 129.6 9.07993C136.8 14.6799 141.44 22.3199 143.52 31.9999H118.2C116.68 28.7999 114.56 26.3599 111.84 24.6799C109.2 22.9999 106.12 22.1599 102.6 22.1599C97.16 22.1599 92.8 24.1199 89.52 28.0399C86.32 31.8799 84.72 37.0399 84.72 43.5199C84.72 50.0799 86.32 55.3199 89.52 59.2399C92.8 63.0799 97.16 64.9999 102.6 64.9999C106.12 64.9999 109.2 64.1599 111.84 62.4799C114.56 60.7999 116.68 58.3599 118.2 55.1599H143.52C141.44 64.8399 136.8 72.5199 129.6 78.1999C122.4 83.7999 113.52 86.5999 102.96 86.5999C94.64 86.5999 87.28 84.7999 80.88 81.1999C74.48 77.5199 69.52 72.4399 66 65.9599C62.56 59.3999 60.84 51.9199 60.84 43.5199Z" fill="white"/>
</svg>
